<svg viewBox="0 0 64 64" fill="none" xmlns="http://www.w3.org/2000/svg">
  <!-- Body — smoothed traced outline with bumps -->
  <path d="M32 8 C37 8 43 11 48 17 C52 21 56 25 57 30 C58 35 56 40 57 45 C58 50 54 54 48 54 C44 54 42 50 38 52 C34 55 30 55 26 53 C22 51 18 54 14 52 C8 49 4 44 5 40 C6 36 9 32 11 28 C12 24 11 18 14 14 C18 10 24 8 32 8Z" fill="#B8A9D4"/>
  <!-- Sheen -->
  <ellipse cx="27" cy="20" rx="10" ry="6" fill="#CFC3E8" opacity="0.45"/>
  <!-- Left eye -->
  <circle cx="29" cy="28" r="1.4" fill="#3B2D5E"/>
  <!-- Right eye -->
  <circle cx="36" cy="28" r="1.4" fill="#3B2D5E"/>
  <!-- Mouth -->
  <path d="M27 33 Q32 36 37 33" stroke="#3B2D5E" stroke-width="1.2" stroke-linecap="round" fill="none"/>
</svg>
